<?xml version="1.0" standalone="no"?>
<!DOCTYPE svg PUBLIC "-//W3C//DTD SVG 20010904//EN"
 "http://www.w3.org/TR/2001/REC-SVG-20010904/DTD/svg10.dtd">
<svg version="1.0" xmlns="http://www.w3.org/2000/svg"
 width="1000.000000pt" height="1000.000000pt" viewBox="0 0 1000.000000 1000.000000"
 preserveAspectRatio="xMidYMid meet">
<metadata>
Created by potrace 1.11, written by Peter Selinger 2001-2013
</metadata>
<g transform="translate(0.000000,1000.000000) scale(0.100000,-0.100000)"
fill="#000000" stroke="none">
<path d="M4778 9995 c-2 -1 -52 -5 -113 -9 -272 -15 -656 -77 -915 -147 -41
-11 -82 -21 -90 -23 -8 -2 -48 -14 -87 -26 -40 -12 -75 -21 -78 -21 -9 1 -296
-106 -435 -162 -100 -41 -367 -170 -460 -223 -135 -76 -257 -148 -303 -181
-26 -18 -51 -33 -56 -33 -5 0 -11 -3 -13 -7 -1 -5 -30 -26 -63 -48 -33 -22
-64 -44 -70 -48 -5 -4 -50 -38 -100 -74 -299 -221 -651 -560 -870 -838 -22
-27 -42 -52 -45 -55 -3 -3 -19 -23 -36 -45 -16 -22 -33 -44 -37 -50 -4 -5 -29
-39 -55 -75 -25 -36 -49 -67 -53 -70 -3 -3 -8 -9 -10 -15 -2 -5 -38 -62 -80
-125 -225 -340 -408 -719 -554 -1145 -61 -178 -144 -504 -170 -665 -3 -19 -8
-42 -10 -50 -2 -8 -7 -35 -10 -60 -3 -25 -8 -56 -10 -70 -2 -14 -7 -45 -10
-70 -3 -25 -8 -63 -11 -85 -34 -272 -38 -722 -9 -1055 8 -94 21 -189 41 -315
26 -161 31 -188 66 -335 11 -47 21 -92 23 -100 2 -8 9 -35 16 -60 7 -25 13
-50 15 -56 7 -35 80 -262 114 -357 90 -243 215 -518 325 -713 30 -53 55 -98
55 -101 0 -2 18 -31 40 -64 22 -33 40 -63 40 -65 0 -15 252 -374 262 -374 4 0
8 -5 8 -11 0 -7 21 -37 48 -67 26 -31 57 -68 68 -84 20 -26 74 -89 157 -181
174 -193 406 -407 633 -584 128 -100 402 -289 499 -344 385 -219 616 -325 969
-445 71 -24 133 -41 137 -38 5 3 9 1 9 -3 0 -7 87 -36 145 -50 23 -5 56 -13
155 -37 153 -37 280 -61 425 -81 22 -3 54 -7 70 -10 17 -3 58 -7 92 -10 35 -4
73 -8 85 -11 124 -24 792 -24 963 1 17 2 53 7 80 9 92 10 257 33 285 41 8 2
33 6 54 10 33 5 124 23 201 41 11 2 29 6 40 8 46 9 189 48 312 85 387 116 787
297 1155 520 77 47 184 116 188 121 3 4 15 12 27 19 33 17 309 226 383 290
186 161 332 301 480 461 123 133 302 356 400 500 25 36 48 67 53 68 4 2 7 8 7
13 0 5 7 17 15 26 8 10 15 22 14 27 0 5 3 12 8 15 16 11 133 204 209 344 62
113 204 408 204 423 0 3 6 20 14 37 48 104 186 499 200 567 2 14 14 59 25 100
19 68 62 261 75 335 3 17 8 41 11 55 3 14 7 41 9 60 3 19 9 67 15 105 5 39 13
95 16 125 3 30 8 69 10 85 25 208 25 756 0 975 -7 59 -34 266 -41 310 -17 117
-97 472 -127 565 -2 6 -7 26 -11 45 -5 19 -11 40 -14 45 -4 6 -7 15 -8 20 -6
37 -70 219 -131 375 -121 304 -332 707 -479 913 -19 26 -34 51 -34 56 0 5 -3
11 -8 13 -4 2 -34 41 -66 88 -33 47 -62 87 -66 90 -3 3 -19 23 -36 45 -40 55
-149 186 -227 275 -87 99 -369 380 -380 380 -3 0 -23 17 -44 38 -192 190 -617
483 -993 685 -122 65 -441 210 -490 222 -8 2 -33 11 -55 21 -22 10 -42 18 -45
19 -3 0 -75 24 -160 52 -85 29 -175 57 -200 63 -25 7 -52 14 -60 16 -147 39
-365 87 -455 100 -16 2 -55 8 -85 14 -51 8 -80 12 -177 25 -47 5 -151 16 -218
21 -57 5 -583 13 -587 9z"/>
</g>
</svg>
